# xmcd CD database file
#
# Track frame offsets:
#	150
#	20588
#	36922
#	59330
#	82297
#	96885
#	121315
#	140553
#	163374
#	185202
#	206377
#	229234
#	248539
#
# Disc length: 3632 seconds
#
# Revision: 0
# Processed by: cddbd v1.5.1PL0 Copyright (c) Steve Scherf et al.
# Submitted via: CDex 1.51
#
DISCID=be0e2e0d
DTITLE=Bob Wilber - Bobby Gordon - Yearnings
DYEAR=1900
DGENRE=Jazz
TTITLE0=In a little spanish town
TTITLE1=It's all in the mind
TTITLE2=A pretty girl is like a melody
TTITLE3=I ain't got nobody
TTITLE4=Yearnings
TTITLE5=Spain
TTITLE6=How am i to know?
TTITLE7=Blue clarinet
TTITLE8=Song of the islands
TTITLE9=Sunday
TTITLE10=Doodle doo doo
TTITLE11=Bybone days
TTITLE12=All by myself
EXTD=
EXTT0=
EXTT1=
EXTT2=
EXTT3=
EXTT4=
EXTT5=
EXTT6=
EXTT7=
EXTT8=
EXTT9=
EXTT10=
EXTT11=
EXTT12=
PLAYORDER=
